<svg version="1" xmlns="http://www.w3.org/2000/svg" width="933.333" height="933.333" viewBox="0 0 700.000000 700.000000"><path d="M344.9.4c-.2.2-4 .6-8.4 1-8.3.6-9.1.7-21.5 2.7-4.1.6-8.2 1.2-9 1.4-23.2 3.3-62 16-90.5 29.5-26.9 12.8-64.3 37.3-84 54.9-24.3 22-42.9 41.7-56.2 59.6-8.5 11.6-11.9 16.5-16.9 24.2-17 26.3-31 55.4-40.9 84.8-2 6-5.5 17.8-5.9 20-.2 1.1-1.3 5.6-2.4 10-1.1 4.4-2.3 9.8-2.8 12-.4 2.2-.8 4.4-.9 5-.2.5-.8 4.6-1.5 9-.6 4.4-1.3 9.1-1.5 10.5-2.8 16.6-2.7 61.1.1 81.5 1.2 8.5 4.6 26.4 6.5 34 2.4 9.4 9.8 32.6 10.9 34 .4.5 1.1 2.1 1.5 3.5 1.5 5.2 13.4 28.9 19 38 5.1 8.3 16.9 25.6 18.5 27 .3.3 2.3 2.7 4.5 5.5 6.8 8.6 22.6 24.4 33.5 33.5 5.8 4.9 11.9 10.5 13.5 12.6 29.7 37.7 70.8 67.5 117 84.9 18.2 6.9 41.2 13 56.5 15 3 .4 6.3.9 7.2 1 1.6.3 4.7.7 19.8 2.1 8.7.8 36.9.8 45 0 13.9-1.5 28.4-3.3 33-4.2 1.4-.2 3.9-.7 5.5-1 1.7-.2 10.2-2.2 19-4.4 19-4.7 37.1-10.7 55-18.3 5.6-2.4 35.2-17.3 40.2-20.3 19.3-11.4 41-26.8 56.2-39.9 28.8-24.8 51.5-50.4 71.5-80.5 32.3-48.6 51.6-99.6 59.1-156 2.6-19.6 2.6-65.4.1-78.7-.3-1.1-.7-4.4-1.1-7.4-.7-6-4-22.2-5.6-28.4-.6-2.2-1.3-4.7-1.4-5.5-1.5-6.9-9.4-29.5-13.7-39-9.6-21.1-19.6-38.2-31.8-54.6-7.9-10.4-23.8-28.4-29.1-32.8-1.9-1.6-5.7-4.9-8.5-7.5-2.8-2.5-6.8-6-8.9-7.6-2.2-1.7-4.8-4.1-6-5.4-12.1-14.5-16.1-19-24.7-27.4-34.8-34.3-79-58.4-128.3-70.2C421.7 4.9 419.9 4.6 408 3c-4.1-.6-9.3-1.3-11.5-1.6-4.3-.6-51-1.5-51.6-1zm38.5 24c104.5 6 190.1 69.1 225 165.8 5.2 14.4 9.8 32.8 12.1 48.8.3 1.9.7 4.4 1 5.5 1.9 9.2 2.6 47.7 1.3 64.7-.8 9-2.4 20.7-4.3 29.8-.2 1.4-.7 3.6-.9 5-.4 2.1-1 5.1-3.1 14-8 34.1-28.2 78.9-49.3 109.5-5.1 7.5-20.3 27.6-22.7 30.1-.5.6-4.4 4.9-8.5 9.4-20.3 22.6-41 40.8-65 57.2-37.2 25.5-83.8 45.6-123.5 53.3-11.7 2.3-25.2 4.4-32 5-4.4.4-9.6.9-11.5 1.1-11.9 1.2-47.4-.1-57.5-2.1-1.1-.2-4.2-.7-7-1-18.4-2.2-51.1-12.2-72.1-22.1-30.2-14.2-64.1-40.8-85.1-66.8-25.6-31.7-45.5-75.4-51.8-113.6-.3-1.9-.8-4.2-1-5-.2-.8-.6-3.8-1-6.5-.3-2.8-.7-6.5-1-8.4-2.2-18-2.2-52.8 0-66.2.2-1.3.9-6 1.5-10.4 4.8-34.4 16.4-70.7 32.8-102.5 5.8-11.3 16.9-30.8 18.2-32 .3-.3 1.8-2.5 3.4-5 20.7-32.4 57.3-70 92.4-94.9 29.5-20.8 62.5-37.4 96.8-48.4 6.1-2 12.6-3.9 14.4-4.2 1.8-.3 3.6-.8 4-1 .3-.2 1.7-.6 3.1-.9 1.3-.3 3.5-.8 4.9-1.1 2.3-.6 13.4-2.7 20.5-3.9 8.4-1.4 21.3-2.7 32.5-3.2 6.9-.4 12.6-.7 12.7-.8.2-.2 8.9.1 20.7.8zm254.5 171.4c6.4 11 13.7 26.2 17.9 37.3 3.9 10.2 9.2 26.6 9.2 28.4 0 .5-4.5-3.5-9.9-8.9-10.5-10.5-10.2-9.9-11.8-22.6-.6-4.7-8.4-36.2-9.7-39.3-1.8-4.1.6-1.2 4.3 5.1zm35.2 111.6c.1 1.7.3 4.2.5 5.6.7 5.4.3 38.3-.5 40.9 0 .3-6.4-5.8-14.2-13.5l-14-13.9.5-5.5c.8-7.8 1.7-20.9 2.1-32 .2-5.2.4-9.6.4-9.7.1-.1 5.7 5.5 12.6 12.4 10.4 10.4 12.5 13.1 12.6 15.7zM655 369.9l14.8 14.9-1.4 6.4c-.7 3.6-1.5 7.6-1.8 8.9-1.8 9.2-9.4 34.9-10.6 36.3-.5.4-7.8-6.2-16.4-14.7l-15.5-15.6 4.4-12.8c5-14.5 7.8-24.1 9.6-32.6.7-3.1 1.4-5.7 1.7-5.7.2 0 7.1 6.7 15.2 14.9zm-9 92.6c0 .5-3 6.8-6.6 14-10.4 20.4-9.4 18.8-11.2 17.3-2.8-2.2-31.2-30.8-31.2-31.4 0-.3 2.5-5 5.5-10.4s6.5-12 7.8-14.6c1.2-2.7 2.6-5.5 3.1-6.3.6-1 4.9 2.7 16.7 14.5 8.8 8.7 15.9 16.3 15.9 16.9zm-30 53.8c0 .5-.8 1.9-1.7 3.2-1 1.2-2.5 3.3-3.3 4.5-.8 1.2-4.7 6.5-8.6 11.6l-7.2 9.4-16.6-16.7c-14.7-14.7-16.5-16.8-15.4-18.3.7-1 5.6-7.4 10.8-14.3l9.5-12.6 16.3 16.2c8.9 8.9 16.2 16.6 16.2 17zm-53 30.2l16.5 16.5-5 5.1c-2.8 2.8-7.5 7.4-10.5 10.3-3 2.8-6.4 6.1-7.6 7.2l-2.2 2.1-16.1-16.1c-8.9-8.8-16.4-16.4-16.7-16.8-.5-.6 23.4-24.7 24.6-24.8.3 0 7.9 7.4 17 16.5zM518.6 586c8.7 8.8 16 16.3 16.1 16.8.3.8-8.2 7-20.5 15.1l-8.4 5.4-16.5-16.5-16.5-16.5 12.5-8.7c6.9-4.8 13.1-9.4 13.8-10.2.6-.8 1.7-1.4 2.3-1.4.7 0 8.4 7.2 17.2 16zm-50.7 33.1c8.8 8.9 16.1 16.3 16.1 16.5 0 1-31.3 15.4-33.4 15.4-.6 0-8.1-7.1-16.8-15.7l-15.7-15.7 16.2-8.1c8.9-4.5 16.5-8.2 16.8-8.3.4-.1 7.9 7.1 16.8 15.9zm-58.3 25.6l15.7 15.7-6.9 1.9c-15.1 4-22.5 5.7-35.1 7.8l-13.2 2.2-14.5-14.4c-8-7.9-14.6-14.6-14.6-14.9 0-.3.8-.6 1.8-.7 5.7-.5 39.1-9.3 46.2-12.2 1.4-.5 3-1 3.7-1 .7-.1 8.2 7 16.9 15.6zm-199-5.5l12.2 3 7.8 8 7.9 7.9-6-2.2c-12.6-4.6-41.4-19.2-43-21.9-.3-.4 1.6-.1 4.3.7 2.6.8 10.2 2.9 16.8 4.5zm114.2 21.3c7.2 7.1 12.9 13.2 12.6 13.6-.2.4-5.5.5-11.6.3-11.9-.4-16.5-.7-31.8-2.6l-9.4-1.1-11.3-11.4c-6.2-6.2-11.3-11.4-11.3-11.6 0-.1 11.2-.2 24.9-.2h24.9l13 13z"/><path d="M351.7 47.6c-.1.1-4.2.5-9 .9-4.8.3-9.6.8-10.5.9-.9.2-4.4.7-7.7 1.2-3.3.4-6.2.8-6.5.9-.3.1-2.5.5-5 .9-2.5.5-5.2 1-6 1.1-.8.2-6.1 1.5-11.7 2.9-67.3 17-127.8 55.9-174.5 112.2-31.2 37.7-53.2 81.2-65.2 128.9-2.4 9.7-2.8 11.7-4.2 20-.3 2.2-.8 4.7-.9 5.5-.2.8-.6 4.4-1 8-.4 3.6-.9 7.6-1.2 9-.9 4.7-1.1 51.5-.2 58 2.1 15.8 2.3 16.8 4.5 25.5 7 27.8 21.5 52.5 46.5 78.9l5.6 5.9 2.3-7.4c6.5-21.8 17.5-36.7 32.2-44 4.3-2.2 14.5-5.2 24.8-7.4.8-.2 11-2.7 22.5-5.5 23.6-5.9 21.7-5.4 26.7-6.4 4.7-1 5.3-1.8 6.7-9.3l1.2-6.2-8.4-8.3c-9.6-9.6-15.9-18.1-21.7-29.4-4.2-8.2-9.4-23-10.4-29.9-.4-2.2-.9-4.7-1.1-5.5-.3-.8-.7-3.7-.9-6.3-.5-4.2-1.2-5.6-5.5-9.9-7.8-7.8-12.1-19.1-11.5-29.8.5-8.6 5-27.4 8.1-33.6 2.9-6.1 10.8-14.8 16-17.9 2.6-1.5 4-3.7 6.8-11 5.1-12.6 12.4-26.2 21.2-38.8 4.1-6 7.8-12 8.3-13.5.5-1.5 1.1-10.2 1.3-19.4.4-13.9.8-17.3 2.4-19.9 2.9-5.1 6.6-7.2 13.2-7.7l5.9-.4 7.6 7.5c4.2 4.1 10.2 9 13.4 10.9 5.7 3.4 16.6 7.3 23.2 8.3 1.9.3 4.3.8 5.4 1.1 1 .4 14.3.6 29.5.7 32.4 0 45.4 1.3 65.2 6.2 38.9 9.7 65.5 31.3 77.3 62.7 2.6 7.2 6.6 24 6.6 28.5.1 2.1 1.1 3.6 4.4 6 8.6 6.3 15.5 17 17.9 27.8 1.6 7.5 1.5 10.8-.9 31.9-.8 7.6-1.6 10.1-4.6 16.5-5.5 11.6-18.1 21.9-32.4 26.5-5 1.6-5.3 2-10.3 10.7-2.8 5-5.6 9.6-6.1 10.2-.6.7-3.2 4.1-5.9 7.7-6.2 8.4-21.1 22.5-29.8 28.3-10.2 6.7-21.6 12.2-33 15.9-11.4 3.7-10.7 2.8-11.9 14.1-.7 6.7.1 7.9 9.1 14.5 2.8 2 5.7 4.3 6.5 4.9.8.7 10.1 7.9 20.5 15.9 10.5 8 20.4 15.7 22 16.9 10.1 7.9 32.8 25.3 35.1 27 1.5 1.1 3.2 1.9 3.8 1.7 1-.3 9.3-6.2 13.1-9.3 1.1-.9 6.3-5.2 11.5-9.5 22.4-18.4 46.9-45.4 63.7-70.4 10.1-15.1 12.7-19.5 20.3-34.3 13-25.4 23.3-54 27.9-77.7.6-3 1.4-6.6 1.6-8 .5-2.4 2.1-12.8 3-19.6 2.3-16.6 2.2-49.6-.1-65.4-4.5-30.7-11.3-52.8-23.9-78.1C548.9 120 503.7 80.6 449 61.5c-10.6-3.7-29.8-8.7-38-10-2.5-.4-5.3-.9-6.4-1.1-2.6-.5-10-1.3-17.6-2-5.7-.6-34.9-1.2-35.3-.8z"/></svg>