<svg width="291" height="248" viewBox="0 0 291 248" fill="none" xmlns="http://www.w3.org/2000/svg">
<g clip-path="url(#clip0)">
<g opacity="0.8">
<path opacity="0.8" d="M291 23.4414H169.154V160.188H291V23.4414Z" fill="url(#paint0_linear)"/>
</g>
<path d="M288.985 114.739H171.168V157.208H288.985V114.739Z" fill="#292837"/>
<path d="M185.406 124.815H180.84V146.576H185.406V124.815Z" fill="#64FFDA"/>
<g opacity="0.7">
<path opacity="0.7" d="M194.417 124.815H189.852V146.576H194.417V124.815Z" fill="#64FFDA"/>
</g>
<g opacity="0.6">
<path opacity="0.6" d="M203.429 124.815H198.863V146.576H203.429V124.815Z" fill="#64FFDA"/>
</g>
<g opacity="0.5">
<path opacity="0.5" d="M212.444 124.815H207.879V146.576H212.444V124.815Z" fill="#64FFDA"/>
</g>
<g opacity="0.5">
<path opacity="0.5" d="M221.456 124.815H216.89V146.576H221.456V124.815Z" fill="#64FFDA"/>
</g>
<g opacity="0.4">
<path opacity="0.4" d="M230.471 124.815H225.906V146.576H230.471V124.815Z" fill="#64FFDA"/>
</g>
<g opacity="0.3">
<path opacity="0.3" d="M239.483 124.815H234.917V146.576H239.483V124.815Z" fill="#64FFDA"/>
</g>
<path d="M272.307 146.633C278.391 146.633 283.324 141.673 283.324 135.555C283.324 129.437 278.391 124.477 272.307 124.477C266.223 124.477 261.29 129.437 261.29 135.555C261.29 141.673 266.223 146.633 272.307 146.633Z" fill="#EA1C7F"/>
<path d="M288.985 70.6189H171.168V113.088H288.985V70.6189Z" fill="#292837"/>
<path d="M185.406 80.692H180.84V102.452H185.406V80.692Z" fill="#64FFDA"/>
<g opacity="0.7">
<path opacity="0.7" d="M194.417 80.692H189.852V102.452H194.417V80.692Z" fill="#64FFDA"/>
</g>
<g opacity="0.6">
<path opacity="0.6" d="M203.429 80.692H198.863V102.452H203.429V80.692Z" fill="#64FFDA"/>
</g>
<g opacity="0.5">
<path opacity="0.5" d="M212.444 80.692H207.879V102.452H212.444V80.692Z" fill="#64FFDA"/>
</g>
<g opacity="0.5">
<path opacity="0.5" d="M221.456 80.692H216.89V102.452H221.456V80.692Z" fill="#64FFDA"/>
</g>
<g opacity="0.4">
<path opacity="0.4" d="M230.471 80.692H225.906V102.452H230.471V80.692Z" fill="#64FFDA"/>
</g>
<g opacity="0.3">
<path opacity="0.3" d="M239.483 80.692H234.917V102.452H239.483V80.692Z" fill="#64FFDA"/>
</g>
<path d="M272.307 102.513C278.391 102.513 283.324 97.5529 283.324 91.4349C283.324 85.3168 278.391 80.3571 272.307 80.3571C266.223 80.3571 261.29 85.3168 261.29 91.4349C261.29 97.5529 266.223 102.513 272.307 102.513Z" fill="#EA1C7F"/>
<path d="M288.985 26.4988H171.168V68.968H288.985V26.4988Z" fill="#292837"/>
<path d="M185.406 36.5719H180.84V58.3323H185.406V36.5719Z" fill="#64FFDA"/>
<g opacity="0.7">
<path opacity="0.7" d="M194.417 36.5719H189.852V58.3323H194.417V36.5719Z" fill="#64FFDA"/>
</g>
<g opacity="0.6">
<path opacity="0.6" d="M203.429 36.5719H198.863V58.3323H203.429V36.5719Z" fill="#64FFDA"/>
</g>
<g opacity="0.5">
<path opacity="0.5" d="M212.444 36.5719H207.879V58.3323H212.444V36.5719Z" fill="#64FFDA"/>
</g>
<g opacity="0.5">
<path opacity="0.5" d="M221.456 36.5719H216.89V58.3323H221.456V36.5719Z" fill="#64FFDA"/>
</g>
<g opacity="0.4">
<path opacity="0.4" d="M230.471 36.5719H225.906V58.3323H230.471V36.5719Z" fill="#64FFDA"/>
</g>
<g opacity="0.3">
<path opacity="0.3" d="M239.483 36.5719H234.917V58.3323H239.483V36.5719Z" fill="#64FFDA"/>
</g>
<path d="M272.307 59.2565C278.866 59.2565 284.183 53.91 284.183 47.3148C284.183 40.7196 278.866 35.3731 272.307 35.3731C265.748 35.3731 260.431 40.7196 260.431 47.3148C260.431 53.91 265.748 59.2565 272.307 59.2565Z" fill="url(#paint1_linear)"/>
<path d="M272.307 103.675C278.866 103.675 284.183 98.3281 284.183 91.7329C284.183 85.1377 278.866 79.7912 272.307 79.7912C265.748 79.7912 260.431 85.1377 260.431 91.7329C260.431 98.3281 265.748 103.675 272.307 103.675Z" fill="url(#paint2_linear)"/>
<path d="M272.307 147.791C278.866 147.791 284.183 142.445 284.183 135.85C284.183 129.254 278.866 123.908 272.307 123.908C265.748 123.908 260.431 129.254 260.431 135.85C260.431 142.445 265.748 147.791 272.307 147.791Z" fill="url(#paint3_linear)"/>
<path d="M272.307 58.3925C278.391 58.3925 283.324 53.4329 283.324 47.3148C283.324 41.1967 278.391 36.2371 272.307 36.2371C266.223 36.2371 261.29 41.1967 261.29 47.3148C261.29 53.4329 266.223 58.3925 272.307 58.3925Z" fill="#EA1C7F"/>
<path d="M134.781 179.424C134.782 173.76 132.68 168.3 128.888 164.112C125.096 159.923 119.887 157.308 114.279 156.778C108.671 156.248 103.069 157.841 98.5668 161.245C94.0651 164.649 90.9884 169.62 89.9386 175.184L20.4182 173.289L21.1808 185.301C21.1808 185.301 11.2698 208.3 63.366 214.435V237.693H123.598V199.038C127.002 197.033 129.825 194.169 131.787 190.728C133.749 187.287 134.781 183.39 134.781 179.424Z" fill="url(#paint4_linear)"/>
<path d="M23.5687 185.787C23.5687 185.787 14.0773 207.811 63.9721 213.688V235.961H121.653V176.983L22.836 174.304L23.5687 185.787Z" fill="#FDA57D"/>
<path d="M52.3959 93.8795C50.8932 96.2675 48.5115 97.9602 45.7713 98.5877C43.0312 99.2152 40.1554 98.7264 37.7725 97.2282L6.80053 76.707C4.4257 75.1959 2.74231 72.801 2.11826 70.0457C1.49422 67.2903 1.98028 64.3986 3.47021 62.0025C4.97293 59.6145 7.35464 57.9218 10.0948 57.2943C12.835 56.6668 15.7108 57.1555 18.0936 58.6537L49.0656 79.175C51.4404 80.6861 53.1238 83.081 53.7479 85.8363C54.3719 88.5917 53.8859 91.4834 52.3959 93.8795Z" fill="url(#paint5_linear)"/>
<path d="M50.6741 92.7576C49.2759 94.9762 47.0614 96.5482 44.5143 97.1305C41.9672 97.7128 39.2945 97.2579 37.0798 95.8653L8.28915 76.7773C6.08282 75.3713 4.51941 73.1445 3.94036 70.5833C3.3613 68.0221 3.81365 65.3346 5.19861 63.1076C6.59687 60.8891 8.81135 59.317 11.3584 58.7347C13.9055 58.1525 16.5783 58.6073 18.793 59.9999L47.5836 79.0879C49.7899 80.4939 51.3533 82.7207 51.9324 85.2819C52.5114 87.8431 52.0591 90.5307 50.6741 92.7576Z" fill="#FDA57D"/>
<path d="M110.7 201.944C122.663 201.944 132.36 192.193 132.36 180.164C132.36 168.135 122.663 158.383 110.7 158.383C98.7371 158.383 89.0394 168.135 89.0394 180.164C89.0394 192.193 98.7371 201.944 110.7 201.944Z" fill="#FDA57D"/>
<path d="M106.797 36.5016H23.8151C21.9317 36.5016 20.4049 38.0369 20.4049 39.9308V196.067C20.4049 197.961 21.9317 199.496 23.8151 199.496H106.797C108.68 199.496 110.207 197.961 110.207 196.067V39.9308C110.207 38.0369 108.68 36.5016 106.797 36.5016Z" fill="url(#paint6_linear)"/>
<path d="M104.455 38.7051H26.163C23.6542 38.7051 21.6204 40.7501 21.6204 43.2728V192.729C21.6204 195.251 23.6542 197.296 26.163 197.296H104.455C106.964 197.296 108.998 195.251 108.998 192.729V43.2728C108.998 40.7501 106.964 38.7051 104.455 38.7051Z" fill="#292837"/>
<path d="M87.261 42.6834C87.0079 44.3671 86.1632 45.9038 84.8802 47.0152C83.5972 48.1265 81.9608 48.7389 80.2674 48.7414H50.1013C48.4079 48.7389 46.7715 48.1265 45.4885 47.0152C44.2055 45.9038 43.3608 44.3671 43.1077 42.6834H27.1221C26.2389 42.6834 25.3918 43.0363 24.7672 43.6643C24.1427 44.2923 23.7918 45.1441 23.7918 46.0322V189.996C23.7918 190.884 24.1427 191.736 24.7672 192.364C25.3918 192.992 26.2389 193.345 27.1221 193.345H103.486C104.37 193.345 105.217 192.992 105.841 192.364C106.466 191.736 106.817 190.884 106.817 189.996V46.0188C106.817 45.1307 106.466 44.2789 105.841 43.6509C105.217 43.0229 104.37 42.67 103.486 42.67L87.261 42.6834Z" fill="#EA1C7F"/>
<path d="M74.5592 44.5789H56.3057C55.9691 44.5789 55.6963 44.8525 55.6963 45.19C55.6963 45.5275 55.9691 45.8012 56.3057 45.8012H74.5592C74.8958 45.8012 75.1687 45.5275 75.1687 45.19C75.1687 44.8525 74.8958 44.5789 74.5592 44.5789Z" fill="#DBDBDB"/>
<path d="M79.3049 45.8011C79.7077 45.8011 80.0342 45.4728 80.0342 45.0678C80.0342 44.6627 79.7077 44.3344 79.3049 44.3344C78.9021 44.3344 78.5756 44.6627 78.5756 45.0678C78.5756 45.4728 78.9021 45.8011 79.3049 45.8011Z" fill="#DBDBDB"/>
<path d="M124.704 184.005C118.42 185.465 114.103 181.346 112.648 175.024L98.2111 121.095C97.5194 118.048 98.0551 114.849 99.7013 112.198C101.347 109.547 103.97 107.659 106.997 106.946C110.028 106.253 113.209 106.795 115.845 108.454C118.48 110.112 120.355 112.752 121.06 115.797L132.846 171.109C134.302 177.415 130.988 182.545 124.704 184.005Z" fill="url(#paint7_linear)"/>
<path d="M119.434 117.102C118.209 111.768 112.915 108.444 107.61 109.676C102.306 110.908 98.9991 116.231 100.225 121.565L113.508 179.373C114.733 184.707 120.027 188.031 125.332 186.799C130.636 185.567 133.943 180.244 132.717 174.91L119.434 117.102Z" fill="#FDA57D"/>
<path d="M132.27 228.674H49.8249V248H132.27V228.674Z" fill="url(#paint8_linear)"/>
<path d="M130.042 230.915H52.0529V246.038H130.042V230.915Z" fill="#4D8AF0"/>
<path d="M40.3702 151.736C38.8842 154.094 36.5308 155.765 33.8239 156.383C31.117 157.002 28.2767 156.518 25.9232 155.038L5.15535 141.526C2.81062 140.032 1.14919 137.665 0.533933 134.943C-0.0813227 132.221 0.399597 129.365 1.87165 126.999C3.35758 124.641 5.711 122.97 8.41788 122.352C11.1248 121.733 13.9651 122.217 16.3186 123.697L37.0864 137.209C39.4312 138.703 41.0926 141.07 41.7079 143.792C42.3231 146.514 41.8422 149.37 40.3702 151.736Z" fill="url(#paint9_linear)"/>
<path d="M35.1615 180.341C33.6625 182.721 31.288 184.407 28.5566 185.031C25.8253 185.655 22.9593 185.167 20.5847 183.673L7.71968 174.237C5.35355 172.729 3.67688 170.342 3.05598 167.595C2.43509 164.849 2.92044 161.967 4.40601 159.579C5.90501 157.2 8.27957 155.514 11.0109 154.89C13.7422 154.265 16.6082 154.753 18.9828 156.247L31.8478 165.694C34.2112 167.201 35.886 169.587 36.5067 172.331C37.1275 175.075 36.6439 177.955 35.1615 180.341Z" fill="url(#paint10_linear)"/>
<g opacity="0.5">
<path opacity="0.5" d="M65.3076 143.19C79.1427 143.19 90.3582 131.912 90.3582 118.001C90.3582 104.089 79.1427 92.8112 65.3076 92.8112C51.4725 92.8112 40.2569 104.089 40.2569 118.001C40.2569 131.912 51.4725 143.19 65.3076 143.19Z" fill="url(#paint11_linear)"/>
</g>
<path d="M65.3076 141.71C78.3297 141.71 88.8862 131.095 88.8862 118.001C88.8862 104.906 78.3297 94.2914 65.3076 94.2914C52.2854 94.2914 41.7289 104.906 41.7289 118.001C41.7289 131.095 52.2854 141.71 65.3076 141.71Z" fill="#69F0AE"/>
<path d="M55.0735 114.839L63.9155 122.987L76.4408 104.465L80.8635 108.169L63.9155 130.398L51.3902 116.32L55.0735 114.839Z" fill="white"/>
<path d="M34.1224 179.638C32.7242 181.857 30.5097 183.429 27.9626 184.011C25.4155 184.593 22.7428 184.138 20.5281 182.746L8.53892 173.949C6.33259 172.543 4.76918 170.316 4.19013 167.755C3.61107 165.193 4.06342 162.506 5.44838 160.279C6.84664 158.06 9.06112 156.488 11.6082 155.906C14.1553 155.324 16.828 155.779 19.0427 157.171L31.0319 165.968C33.2382 167.374 34.8016 169.601 35.3807 172.162C35.9597 174.724 35.5074 177.411 34.1224 179.638Z" fill="#FDA57D"/>
<path d="M39.2345 151.006C37.8363 153.225 35.6218 154.797 33.0747 155.379C30.5276 155.961 27.8548 155.506 25.6401 154.114L6.09782 141.389C3.89149 139.983 2.32808 137.756 1.74903 135.195C1.16997 132.633 1.62232 129.946 3.00728 127.719C4.40729 125.497 6.6256 123.924 9.1766 123.343C11.7276 122.763 14.4034 123.222 16.6183 124.621L36.1606 137.347C38.3614 138.755 39.9194 140.981 40.4952 143.54C41.071 146.098 40.6178 148.782 39.2345 151.006Z" fill="#FDA57D"/>
<path d="M45.7453 123.275C44.253 125.644 41.8889 127.323 39.1693 127.945C36.4498 128.567 33.5961 128.081 31.2317 126.594L4.9222 109.361C2.56603 107.86 0.896306 105.483 0.277894 102.749C-0.340519 100.014 0.142661 97.1444 1.62185 94.7669C3.11406 92.3977 5.47824 90.7187 8.19776 90.0969C10.9173 89.475 13.771 89.9609 16.1354 91.4483L42.4449 108.681C44.8011 110.182 46.4708 112.559 47.0892 115.293C47.7076 118.028 47.2244 120.898 45.7453 123.275Z" fill="url(#paint12_linear)"/>
<path d="M44.3465 122.371C42.9483 124.589 40.7338 126.161 38.1867 126.744C35.6396 127.326 32.9669 126.871 30.7522 125.479L6.10781 109.337C3.90149 107.931 2.33808 105.705 1.75902 103.143C1.17997 100.582 1.63232 97.8947 3.01728 95.6677C4.41559 93.4473 6.63132 91.874 9.18002 91.2916C11.7287 90.7093 14.4031 91.1653 16.6183 92.5601L41.2627 108.701C43.4679 110.108 45.0299 112.335 45.6077 114.897C46.1855 117.458 45.7321 120.145 44.3465 122.371Z" fill="#FDA57D"/>
<path d="M69.0575 30.4738V0.334869H200.938V18.4182" stroke="#3AD29F" stroke-width="2" stroke-miterlimit="10" stroke-dasharray="12 12"/>
<path d="M146.987 196.238H203.935V166.099" stroke="#3AD29F" stroke-width="2" stroke-miterlimit="10" stroke-dasharray="12 12"/>
</g>
<defs>
<linearGradient id="paint0_linear" x1="230.078" y1="160.188" x2="230.078" y2="23.4414" gradientUnits="userSpaceOnUse">
<stop stop-color="#808080" stop-opacity="0.25"/>
<stop offset="0.54" stop-color="#808080" stop-opacity="0.12"/>
<stop offset="1" stop-color="#808080" stop-opacity="0.1"/>
</linearGradient>
<linearGradient id="paint1_linear" x1="19681.4" y1="4261.55" x2="19681.4" y2="2558.18" gradientUnits="userSpaceOnUse">
<stop stop-color="#808080" stop-opacity="0.25"/>
<stop offset="0.54" stop-color="#808080" stop-opacity="0.12"/>
<stop offset="1" stop-color="#808080" stop-opacity="0.1"/>
</linearGradient>
<linearGradient id="paint2_linear" x1="19681.4" y1="7473.62" x2="19681.4" y2="5770.5" gradientUnits="userSpaceOnUse">
<stop stop-color="#808080" stop-opacity="0.25"/>
<stop offset="0.54" stop-color="#808080" stop-opacity="0.12"/>
<stop offset="1" stop-color="#808080" stop-opacity="0.1"/>
</linearGradient>
<linearGradient id="paint3_linear" x1="19681.4" y1="10664.4" x2="19681.4" y2="8961.26" gradientUnits="userSpaceOnUse">
<stop stop-color="#808080" stop-opacity="0.25"/>
<stop offset="0.54" stop-color="#808080" stop-opacity="0.12"/>
<stop offset="1" stop-color="#808080" stop-opacity="0.1"/>
</linearGradient>
<linearGradient id="paint4_linear" x1="45320.8" y1="64073.6" x2="45320.8" y2="44476.3" gradientUnits="userSpaceOnUse">
<stop stop-color="#808080" stop-opacity="0.25"/>
<stop offset="0.54" stop-color="#808080" stop-opacity="0.12"/>
<stop offset="1" stop-color="#808080" stop-opacity="0.1"/>
</linearGradient>
<linearGradient id="paint5_linear" x1="12884.5" y1="15717.2" x2="12884.5" y2="10492.9" gradientUnits="userSpaceOnUse">
<stop stop-color="#808080" stop-opacity="0.25"/>
<stop offset="0.54" stop-color="#808080" stop-opacity="0.12"/>
<stop offset="1" stop-color="#808080" stop-opacity="0.1"/>
</linearGradient>
<linearGradient id="paint6_linear" x1="32223.9" y1="110023" x2="32223.9" y2="30688.8" gradientUnits="userSpaceOnUse">
<stop stop-color="#292837"/>
<stop offset="0.54" stop-color="#808080" stop-opacity="0.12"/>
<stop offset="1" stop-color="#808080" stop-opacity="0.1"/>
</linearGradient>
<linearGradient id="paint7_linear" x1="18087.5" y1="48990.5" x2="18087.5" y2="30984.8" gradientUnits="userSpaceOnUse">
<stop stop-color="#808080" stop-opacity="0.25"/>
<stop offset="0.54" stop-color="#808080" stop-opacity="0.12"/>
<stop offset="1" stop-color="#808080" stop-opacity="0.1"/>
</linearGradient>
<linearGradient id="paint8_linear" x1="35982.9" y1="16045.2" x2="35982.9" y2="14929.9" gradientUnits="userSpaceOnUse">
<stop stop-color="#808080" stop-opacity="0.25"/>
<stop offset="0.54" stop-color="#808080" stop-opacity="0.12"/>
<stop offset="1" stop-color="#808080" stop-opacity="0.1"/>
</linearGradient>
<linearGradient id="paint9_linear" x1="9445.4" y1="19024.4" x2="9445.4" y2="15458.2" gradientUnits="userSpaceOnUse">
<stop stop-color="#808080" stop-opacity="0.25"/>
<stop offset="0.54" stop-color="#808080" stop-opacity="0.12"/>
<stop offset="1" stop-color="#808080" stop-opacity="0.1"/>
</linearGradient>
<linearGradient id="paint10_linear" x1="7563.03" y1="19555.8" x2="7563.03" y2="16746.3" gradientUnits="userSpaceOnUse">
<stop stop-color="#808080" stop-opacity="0.25"/>
<stop offset="0.54" stop-color="#808080" stop-opacity="0.12"/>
<stop offset="1" stop-color="#808080" stop-opacity="0.1"/>
</linearGradient>
<linearGradient id="paint11_linear" x1="9865.13" y1="21634.3" x2="9865.13" y2="14054.8" gradientUnits="userSpaceOnUse">
<stop stop-color="#808080" stop-opacity="0.25"/>
<stop offset="0.54" stop-color="#808080" stop-opacity="0.12"/>
<stop offset="1" stop-color="#808080" stop-opacity="0.1"/>
</linearGradient>
<linearGradient id="paint12_linear" x1="11085.8" y1="17822.5" x2="11085.8" y2="13424.2" gradientUnits="userSpaceOnUse">
<stop stop-color="#808080" stop-opacity="0.25"/>
<stop offset="0.54" stop-color="#808080" stop-opacity="0.12"/>
<stop offset="1" stop-color="#808080" stop-opacity="0.1"/>
</linearGradient>
<clipPath id="clip0">
<rect width="291" height="248" fill="white"/>
</clipPath>
</defs>
</svg>
