<svg width="59" height="59" viewBox="0 0 59 59" fill="none" xmlns="http://www.w3.org/2000/svg">
<path d="M6.92303 56C5.37803 56 3.92303 53.747 3.92303 52C3.92303 51.448 3.47503 51 2.92303 51C2.37103 51 1.92303 51.448 1.92303 52C1.92303 54.774 4.10703 58 6.92303 58C7.47503 58 7.92303 57.552 7.92303 57C7.92303 56.448 7.47503 56 6.92303 56Z" fill="#EA1C7F"/>
<path d="M51.492 2C52.99 2 54.922 4.216 54.922 6.57C54.922 7.122 55.37 7.57 55.922 7.57C56.474 7.57 56.922 7.122 56.922 6.57C56.922 3.255 54.232 0 51.492 0C50.94 0 50.492 0.448 50.492 1C50.492 1.552 50.94 2 51.492 2Z" fill="#EA1C7F"/>
<path d="M57.923 45C57.923 44.448 57.475 44 56.923 44C56.371 44 55.923 44.448 55.923 45C55.923 50.233 51.633 55 46.923 55C46.371 55 45.923 55.448 45.923 56C45.923 56.552 46.371 57 46.923 57C52.782 57 57.923 51.393 57.923 45Z" fill="#EA1C7F"/>
<path d="M57.923 53C57.371 53 56.923 53.448 56.923 54C56.923 55.157 55.55 57 53.923 57C53.371 57 52.923 57.448 52.923 58C52.923 58.552 53.371 59 53.923 59C56.616 59 58.923 56.25 58.923 54C58.923 53.448 58.475 53 57.923 53Z" fill="#EA1C7F"/>
<path d="M38.171 57.141C39.79 56.536 41.367 55.783 42.888 54.904C43.013 54.862 43.129 54.796 43.232 54.704C45.533 53.336 47.697 51.67 49.644 49.723C52.758 46.609 55.094 43.04 56.643 39.297C56.662 39.258 56.679 39.222 56.693 39.182C57.602 36.96 58.232 34.677 58.581 32.392C58.591 32.329 58.608 32.269 58.606 32.206C58.941 29.905 58.989 27.606 58.749 25.362C58.753 25.286 58.739 25.214 58.725 25.139C58.119 19.908 55.937 15.005 52.118 11.186C51.43 10.497 50.685 9.85501 49.858 9.22301C49.253 8.42901 48.596 7.66501 47.875 6.94401C43.49 2.55601 37.452 0.140015 30.874 0.140015C23.085 0.140015 15.236 3.52101 9.34003 9.41701C-1.96697 20.725 -3.07697 38.012 6.86503 47.955C7.56503 48.655 8.32103 49.286 9.10003 49.883C9.74603 50.733 10.403 51.493 11.107 52.197C15.495 56.584 21.533 59 28.111 59C31.481 59 34.862 58.364 38.091 57.169C38.119 57.159 38.145 57.153 38.171 57.141ZM31.262 56.796L28.774 54.308C30.287 54.037 31.785 53.643 33.256 53.132L35.917 55.793C34.387 56.265 32.83 56.601 31.262 56.796ZM56.841 30.048L54.415 27.622C54.44 27.436 54.465 27.251 54.487 27.065C54.541 26.586 54.583 26.107 54.612 25.629C54.629 25.354 54.637 25.081 54.645 24.807C54.654 24.53 54.658 24.254 54.659 23.978C54.659 23.862 54.666 23.745 54.665 23.629L56.791 25.755C56.931 27.167 56.947 28.603 56.841 30.048ZM55.353 37.045L52.675 34.367C52.814 34.007 52.948 33.645 53.073 33.282C53.128 33.123 53.178 32.963 53.23 32.803C53.368 32.377 53.496 31.95 53.615 31.522C53.66 31.359 53.709 31.196 53.751 31.032C53.838 30.696 53.914 30.359 53.988 30.022L56.524 32.558C56.265 34.063 55.872 35.564 55.353 37.045ZM50.623 38.675C50.937 38.129 51.229 37.575 51.507 37.018C51.566 36.899 51.623 36.78 51.68 36.661C51.73 36.558 51.781 36.455 51.83 36.352L54.554 39.076C54.135 40.031 53.657 40.97 53.128 41.893L50.356 39.121C50.42 39.014 50.486 38.908 50.548 38.8C50.572 38.758 50.599 38.717 50.623 38.675ZM48.273 42.203C48.614 41.757 48.94 41.305 49.254 40.847L52.043 43.636C51.486 44.468 50.889 45.283 50.238 46.074L47.427 43.263C47.697 42.939 47.958 42.61 48.213 42.278C48.233 42.252 48.254 42.228 48.273 42.203ZM42.71 52.688L39.913 49.891C40.763 49.346 41.592 48.759 42.396 48.131L45.215 50.95C44.404 51.573 43.569 52.154 42.71 52.688ZM35.3 52.348C36.267 51.933 37.217 51.466 38.146 50.952L40.91 53.716C39.962 54.218 38.992 54.664 38.007 55.055L35.3 52.348ZM46.765 49.672L43.94 46.847C44.438 46.406 44.929 45.955 45.402 45.481C45.639 45.244 45.865 45 46.094 44.758L48.911 47.575C48.682 47.819 48.47 48.072 48.231 48.31C47.757 48.783 47.265 49.233 46.765 49.672ZM53.396 15.915C54.676 17.877 55.582 20.036 56.162 22.298L54.452 20.588C54.432 20.43 54.405 20.274 54.382 20.118C54.344 19.858 54.307 19.598 54.261 19.34C54.177 18.87 54.08 18.404 53.97 17.942C53.92 17.735 53.863 17.532 53.808 17.326C53.713 16.97 53.61 16.616 53.499 16.265C53.461 16.149 53.435 16.03 53.396 15.915ZM10.754 10.832C16.277 5.30901 23.611 2.14101 30.874 2.14101C36.918 2.14101 42.454 4.34901 46.463 8.35801C47.024 8.91901 47.545 9.50601 48.029 10.115L48.289 10.459C48.309 10.485 48.328 10.512 48.348 10.538C48.789 11.123 49.195 11.726 49.568 12.346C49.576 12.36 49.584 12.374 49.592 12.388C49.958 13 50.291 13.629 50.591 14.271C50.605 14.3 50.617 14.331 50.63 14.36C50.914 14.974 51.167 15.601 51.391 16.238C51.41 16.294 51.43 16.349 51.449 16.405C51.644 16.975 51.808 17.555 51.956 18.14C51.99 18.276 52.029 18.41 52.061 18.547C52.19 19.098 52.29 19.656 52.378 20.217C52.408 20.411 52.441 20.604 52.466 20.8C52.536 21.334 52.584 21.872 52.617 22.413C52.631 22.634 52.643 22.856 52.651 23.079C52.67 23.614 52.671 24.152 52.655 24.691C52.648 24.912 52.637 25.132 52.625 25.353C52.594 25.906 52.549 26.461 52.482 27.016C52.459 27.21 52.428 27.404 52.401 27.598C52.317 28.186 52.22 28.773 52.095 29.359C52.066 29.497 52.029 29.634 51.998 29.771C51.863 30.361 51.712 30.949 51.536 31.535C51.51 31.623 51.486 31.712 51.459 31.8C51.258 32.448 51.029 33.091 50.779 33.73C50.742 33.826 50.708 33.922 50.669 34.017C50.411 34.657 50.126 35.29 49.819 35.917C49.771 36.015 49.725 36.113 49.676 36.21C49.362 36.835 49.022 37.452 48.66 38.062C48.605 38.155 48.549 38.247 48.493 38.339C48.12 38.95 47.725 39.552 47.304 40.143C47.246 40.224 47.186 40.304 47.127 40.385C46.691 40.984 46.234 41.573 45.749 42.147C45.701 42.204 45.65 42.259 45.601 42.316C45.089 42.913 44.555 43.498 43.989 44.064C43.644 44.409 43.292 44.745 42.933 45.072C37.552 49.968 30.685 52.751 23.88 52.751C23.665 52.751 23.455 52.733 23.241 52.727C22.779 52.715 22.318 52.701 21.863 52.664C21.573 52.64 21.289 52.6 21.003 52.566C20.602 52.518 20.202 52.467 19.807 52.399C19.536 52.353 19.268 52.298 19.001 52.242C18.587 52.155 18.178 52.058 17.772 51.949C17.535 51.886 17.299 51.823 17.065 51.752C16.613 51.615 16.17 51.459 15.731 51.294C15.551 51.227 15.368 51.167 15.191 51.095C14.584 50.849 13.989 50.58 13.411 50.281C13.307 50.227 13.209 50.162 13.106 50.107C12.646 49.859 12.194 49.598 11.754 49.317C11.51 49.16 11.275 48.989 11.037 48.822C10.06 48.138 9.12903 47.388 8.28003 46.539C-0.882971 37.378 0.227029 21.359 10.754 10.832ZM16.374 53.63C16.646 53.714 16.921 53.792 17.197 53.867C17.629 53.984 18.065 54.087 18.506 54.18C18.613 54.203 18.717 54.235 18.824 54.256L20.206 55.638C18.667 55.081 17.207 54.361 15.853 53.48C16.023 53.537 16.201 53.577 16.374 53.63ZM24.035 56.64L22.078 54.683C22.434 54.707 22.794 54.715 23.154 54.725C23.394 54.731 23.628 54.758 23.869 54.758C24.673 54.758 25.477 54.713 26.28 54.642L28.625 56.987C28.453 56.99 28.282 57 28.111 57C26.72 57 25.36 56.869 24.035 56.64Z" fill="#EA1C7F"/>
<path d="M12.4031 38.39L18.4171 36.922C18.4601 36.912 18.4941 36.867 18.5051 36.807L18.7141 35.672C16.5691 33.954 15.3471 31.568 15.0751 28.566C13.9861 27.775 13.4671 26.425 13.7661 25.037L14.0421 23.757C14.2781 22.664 15.0251 21.695 16.0381 21.135C16.4571 19.921 16.9961 18.799 17.6441 17.796C17.9261 17.359 18.1551 17.034 18.3421 16.771C18.9061 15.973 18.9061 15.973 18.8891 14.722C18.8821 14.219 18.8991 13.706 18.9381 13.197C18.9911 12.525 19.5691 12 20.2551 12C20.6621 12 21.0391 12.197 21.2631 12.528C21.3961 12.724 21.6801 13.042 22.2771 13.446C23.3811 14.192 25.0681 14.525 26.9821 14.398C27.2751 14.378 27.5771 14.368 27.8841 14.368C37.1681 14.377 39.6211 18.861 39.9671 22.851C41.3111 23.743 42.0451 25.13 41.9061 26.585L41.7461 28.259C41.5771 30.034 40.1471 31.471 38.1911 31.903C36.5571 35.226 33.9461 37.38 30.5871 38.18L30.4111 39.441C30.3951 39.553 30.4611 39.739 30.6431 39.879L38.5631 45.991C39.9801 45.012 41.3261 43.897 42.5731 42.65C47.2671 37.956 50.1201 31.964 50.6071 25.776C51.0981 19.53 49.1241 13.845 45.0481 9.77002C41.4171 6.14002 36.3831 4.14001 30.8741 4.14001C24.1381 4.14001 17.3201 7.09502 12.1691 12.246C7.47406 16.94 4.62106 22.932 4.13506 29.12C3.64406 35.366 4.84606 38.924 8.92306 43C9.39206 40.883 10.5121 38.944 12.4031 38.39Z" fill="#EA1C7F"/>
</svg>
