<svg width="273" height="59" viewBox="0 0 273 59" fill="none" xmlns="http://www.w3.org/2000/svg">
<path d="M90.5823 8.33081C93.4887 8.33081 96.0722 9.06894 98.3327 10.5452C100.639 12.0215 102.415 14.1205 103.661 16.8424C104.953 19.5181 105.599 22.6091 105.599 26.1152C105.599 29.6213 104.953 32.6892 103.661 35.3188C102.415 37.9484 100.662 39.9783 98.4019 41.4084C96.1414 42.8385 93.5348 43.5536 90.5823 43.5536C88.1834 43.5536 86.0382 43.0461 84.1467 42.0312C82.2552 41.0163 80.802 39.6092 79.7871 37.81V51.9268C79.7871 53.1263 79.395 54.072 78.6107 54.764C77.8264 55.456 76.7884 55.802 75.4967 55.802C74.205 55.802 73.1439 55.4329 72.3135 54.6948C71.5292 53.9567 71.1371 52.9879 71.1371 51.7884V12.552C71.1371 11.3064 71.5062 10.3145 72.2443 9.57641C73.0286 8.83828 74.0666 8.46921 75.3583 8.46921C76.65 8.46921 77.688 8.83828 78.4723 9.57641C79.2566 10.3145 79.6487 11.3064 79.6487 12.552V14.282C80.6636 12.3905 82.1168 10.9373 84.0083 9.92241C85.9459 8.86134 88.1372 8.33081 90.5823 8.33081ZM88.2987 36.8412C91.0206 36.8412 93.1427 35.9185 94.6651 34.0732C96.1875 32.1817 96.9487 29.5291 96.9487 26.1152C96.9487 22.6091 96.1875 19.8872 94.6651 17.9496C93.1427 16.012 91.0206 15.0432 88.2987 15.0432C85.5307 15.0432 83.3855 15.9889 81.8631 17.8804C80.3868 19.7719 79.6487 22.4707 79.6487 25.9768C79.6487 29.4368 80.3868 32.1125 81.8631 34.004C83.3855 35.8955 85.5307 36.8412 88.2987 36.8412Z" fill="white"/>
<path d="M138.094 33.7272C138.878 33.7272 139.501 34.0271 139.962 34.6268C140.47 35.2265 140.724 36.0339 140.724 37.0488C140.724 38.4789 139.87 39.6784 138.163 40.6472C136.595 41.5237 134.819 42.2388 132.835 42.7924C130.851 43.2999 128.96 43.5536 127.16 43.5536C121.717 43.5536 117.403 41.9851 114.22 38.848C111.037 35.7109 109.445 31.4205 109.445 25.9768C109.445 22.5168 110.137 19.4489 111.521 16.7732C112.905 14.0975 114.843 12.0215 117.334 10.5452C119.871 9.06894 122.732 8.33081 125.915 8.33081C128.96 8.33081 131.612 8.99974 133.873 10.3376C136.133 11.6755 137.886 13.5669 139.132 16.012C140.378 18.4571 141 21.3404 141 24.662C141 26.6457 140.124 27.6376 138.371 27.6376H117.957C118.234 30.8208 119.133 33.1736 120.656 34.696C122.178 36.1723 124.392 36.9104 127.299 36.9104C128.775 36.9104 130.067 36.7259 131.174 36.3568C132.327 35.9877 133.619 35.4803 135.049 34.8344C136.433 34.0963 137.448 33.7272 138.094 33.7272ZM126.122 14.4204C123.77 14.4204 121.878 15.1585 120.448 16.6348C119.064 18.1111 118.234 20.2332 117.957 23.0012H133.596C133.504 20.1871 132.812 18.0649 131.52 16.6348C130.228 15.1585 128.429 14.4204 126.122 14.4204Z" fill="white"/>
<path d="M165.584 8.46921C166.783 8.37694 167.729 8.63068 168.421 9.23041C169.113 9.83015 169.459 10.7297 169.459 11.9292C169.459 13.1748 169.159 14.0975 168.559 14.6972C167.96 15.2969 166.875 15.6891 165.307 15.8736L163.231 16.0812C160.509 16.358 158.502 17.2807 157.211 18.8492C155.965 20.4177 155.342 22.3784 155.342 24.7312V39.2632C155.342 40.6011 154.927 41.6391 154.097 42.3772C153.266 43.0692 152.228 43.4152 150.983 43.4152C149.737 43.4152 148.699 43.0692 147.869 42.3772C147.084 41.6391 146.692 40.6011 146.692 39.2632V12.4828C146.692 11.1911 147.084 10.1992 147.869 9.50721C148.699 8.81521 149.714 8.46921 150.913 8.46921C152.113 8.46921 153.082 8.81521 153.82 9.50721C154.558 10.1531 154.927 11.0988 154.927 12.3444V15.1124C155.803 13.0825 157.095 11.514 158.802 10.4068C160.555 9.29961 162.493 8.67681 164.615 8.53841L165.584 8.46921Z" fill="white"/>
<path d="M186.334 8.33081C191.04 8.33081 194.523 9.50721 196.783 11.86C199.09 14.1667 200.243 17.6959 200.243 22.4476V39.3324C200.243 40.578 199.874 41.5699 199.136 42.308C198.398 43 197.383 43.346 196.091 43.346C194.892 43.346 193.9 42.9769 193.116 42.2388C192.377 41.5007 192.008 40.5319 192.008 39.3324V37.81C191.224 39.6092 189.979 41.0163 188.272 42.0312C186.611 43.0461 184.673 43.5536 182.459 43.5536C180.198 43.5536 178.145 43.0923 176.3 42.1696C174.455 41.2469 173.001 39.9783 171.94 38.3636C170.879 36.7489 170.349 34.9497 170.349 32.966C170.349 30.4748 170.972 28.5141 172.217 27.084C173.509 25.6539 175.585 24.6159 178.445 23.97C181.305 23.3241 185.25 23.0012 190.278 23.0012H192.008V21.4096C192.008 19.1491 191.524 17.5113 190.555 16.4964C189.586 15.4353 188.018 14.9048 185.85 14.9048C184.512 14.9048 183.151 15.1124 181.767 15.5276C180.383 15.8967 178.745 16.4503 176.854 17.1884C175.654 17.7881 174.778 18.088 174.224 18.088C173.394 18.088 172.702 17.7881 172.148 17.1884C171.641 16.5887 171.387 15.8044 171.387 14.8356C171.387 14.0513 171.571 13.3824 171.94 12.8288C172.356 12.2291 173.025 11.6755 173.947 11.168C175.562 10.2915 177.476 9.59948 179.691 9.09201C181.951 8.58454 184.166 8.33081 186.334 8.33081ZM184.189 37.3256C186.495 37.3256 188.364 36.5644 189.794 35.042C191.27 33.4735 192.008 31.4667 192.008 29.0216V27.5684H190.763C187.672 27.5684 185.273 27.7068 183.566 27.9836C181.859 28.2604 180.637 28.7448 179.898 29.4368C179.16 30.1288 178.791 31.0745 178.791 32.274C178.791 33.7503 179.299 34.9728 180.314 35.9416C181.375 36.8643 182.666 37.3256 184.189 37.3256Z" fill="white"/>
<path d="M222.667 43.5536C219.299 43.5536 216.323 42.8385 213.74 41.4084C211.203 39.9783 209.242 37.9484 207.858 35.3188C206.474 32.6892 205.782 29.6213 205.782 26.1152C205.782 22.6091 206.497 19.5181 207.927 16.8424C209.403 14.1205 211.456 12.0215 214.086 10.5452C216.715 9.06894 219.737 8.33081 223.151 8.33081C224.95 8.33081 226.749 8.58454 228.549 9.09201C230.394 9.59948 232.009 10.2915 233.393 11.168C234.869 12.1368 235.607 13.3593 235.607 14.8356C235.607 15.8505 235.353 16.6809 234.846 17.3268C234.385 17.9265 233.762 18.2264 232.977 18.2264C232.47 18.2264 231.939 18.1111 231.386 17.8804C230.832 17.6497 230.279 17.3729 229.725 17.05C228.71 16.4503 227.741 15.9889 226.819 15.666C225.896 15.2969 224.835 15.1124 223.635 15.1124C220.775 15.1124 218.561 16.0581 216.992 17.9496C215.47 19.7949 214.709 22.4707 214.709 25.9768C214.709 29.4368 215.47 32.1125 216.992 34.004C218.561 35.8493 220.775 36.772 223.635 36.772C224.789 36.772 225.804 36.6105 226.68 36.2876C227.603 35.9185 228.618 35.4341 229.725 34.8344C230.417 34.4192 231.017 34.1193 231.524 33.9348C232.032 33.7041 232.539 33.5888 233.047 33.5888C233.785 33.5888 234.408 33.9117 234.915 34.5576C235.423 35.2035 235.676 36.0108 235.676 36.9796C235.676 37.7639 235.492 38.4559 235.123 39.0556C234.8 39.6092 234.246 40.1167 233.462 40.578C232.032 41.5007 230.371 42.2388 228.479 42.7924C226.588 43.2999 224.65 43.5536 222.667 43.5536Z" fill="white"/>
<path d="M255.487 43.5536C252.027 43.5536 248.982 42.8385 246.353 41.4084C243.769 39.9783 241.762 37.9253 240.332 35.2496C238.902 32.5739 238.187 29.4599 238.187 25.9076C238.187 22.3553 238.902 19.2644 240.332 16.6348C241.762 13.9591 243.769 11.9061 246.353 10.476C248.982 9.04588 252.027 8.33081 255.487 8.33081C258.947 8.33081 261.969 9.04588 264.552 10.476C267.182 11.9061 269.189 13.9591 270.573 16.6348C272.003 19.2644 272.718 22.3553 272.718 25.9076C272.718 29.4599 272.003 32.5739 270.573 35.2496C269.189 37.9253 267.182 39.9783 264.552 41.4084C261.969 42.8385 258.947 43.5536 255.487 43.5536ZM255.418 36.8412C258.232 36.8412 260.377 35.9185 261.853 34.0732C263.33 32.2279 264.068 29.506 264.068 25.9076C264.068 22.3553 263.33 19.6565 261.853 17.8112C260.377 15.9197 258.255 14.974 255.487 14.974C252.719 14.974 250.574 15.9197 249.051 17.8112C247.575 19.6565 246.837 22.3553 246.837 25.9076C246.837 29.506 247.575 32.2279 249.051 34.0732C250.528 35.9185 252.65 36.8412 255.418 36.8412Z" fill="white"/>
<path d="M6.92303 56C5.37803 56 3.92303 53.747 3.92303 52C3.92303 51.448 3.47503 51 2.92303 51C2.37103 51 1.92303 51.448 1.92303 52C1.92303 54.774 4.10703 58 6.92303 58C7.47503 58 7.92303 57.552 7.92303 57C7.92303 56.448 7.47503 56 6.92303 56Z" fill="#EA1C7F"/>
<path d="M51.492 2C52.99 2 54.922 4.216 54.922 6.57C54.922 7.122 55.37 7.57 55.922 7.57C56.474 7.57 56.922 7.122 56.922 6.57C56.922 3.255 54.232 0 51.492 0C50.94 0 50.492 0.448 50.492 1C50.492 1.552 50.94 2 51.492 2Z" fill="#EA1C7F"/>
<path d="M57.923 45C57.923 44.448 57.475 44 56.923 44C56.371 44 55.923 44.448 55.923 45C55.923 50.233 51.633 55 46.923 55C46.371 55 45.923 55.448 45.923 56C45.923 56.552 46.371 57 46.923 57C52.782 57 57.923 51.393 57.923 45Z" fill="#EA1C7F"/>
<path d="M57.923 53C57.371 53 56.923 53.448 56.923 54C56.923 55.157 55.55 57 53.923 57C53.371 57 52.923 57.448 52.923 58C52.923 58.552 53.371 59 53.923 59C56.616 59 58.923 56.25 58.923 54C58.923 53.448 58.475 53 57.923 53Z" fill="#EA1C7F"/>
<path d="M38.171 57.141C39.79 56.536 41.367 55.783 42.888 54.904C43.013 54.862 43.129 54.796 43.232 54.704C45.533 53.336 47.697 51.67 49.644 49.723C52.758 46.609 55.094 43.04 56.643 39.297C56.662 39.258 56.679 39.222 56.693 39.182C57.602 36.96 58.232 34.677 58.581 32.392C58.591 32.329 58.608 32.269 58.606 32.206C58.941 29.905 58.989 27.606 58.749 25.362C58.753 25.286 58.739 25.214 58.725 25.139C58.119 19.908 55.937 15.005 52.118 11.186C51.43 10.497 50.685 9.85501 49.858 9.22301C49.253 8.42901 48.596 7.66501 47.875 6.94401C43.49 2.55601 37.452 0.140015 30.874 0.140015C23.085 0.140015 15.236 3.52101 9.34003 9.41701C-1.96697 20.725 -3.07697 38.012 6.86503 47.955C7.56503 48.655 8.32103 49.286 9.10003 49.883C9.74603 50.733 10.403 51.493 11.107 52.197C15.495 56.584 21.533 59 28.111 59C31.481 59 34.862 58.364 38.091 57.169C38.119 57.159 38.145 57.153 38.171 57.141ZM31.262 56.796L28.774 54.308C30.287 54.037 31.785 53.643 33.256 53.132L35.917 55.793C34.387 56.265 32.83 56.601 31.262 56.796ZM56.841 30.048L54.415 27.622C54.44 27.436 54.465 27.251 54.487 27.065C54.541 26.586 54.583 26.107 54.612 25.629C54.629 25.354 54.637 25.081 54.645 24.807C54.654 24.53 54.658 24.254 54.659 23.978C54.659 23.862 54.666 23.745 54.665 23.629L56.791 25.755C56.931 27.167 56.947 28.603 56.841 30.048ZM55.353 37.045L52.675 34.367C52.814 34.007 52.948 33.645 53.073 33.282C53.128 33.123 53.178 32.963 53.23 32.803C53.368 32.377 53.496 31.95 53.615 31.522C53.66 31.359 53.709 31.196 53.751 31.032C53.838 30.696 53.914 30.359 53.988 30.022L56.524 32.558C56.265 34.063 55.872 35.564 55.353 37.045ZM50.623 38.675C50.937 38.129 51.229 37.575 51.507 37.018C51.566 36.899 51.623 36.78 51.68 36.661C51.73 36.558 51.781 36.455 51.83 36.352L54.554 39.076C54.135 40.031 53.657 40.97 53.128 41.893L50.356 39.121C50.42 39.014 50.486 38.908 50.548 38.8C50.572 38.758 50.599 38.717 50.623 38.675ZM48.273 42.203C48.614 41.757 48.94 41.305 49.254 40.847L52.043 43.636C51.486 44.468 50.889 45.283 50.238 46.074L47.427 43.263C47.697 42.939 47.958 42.61 48.213 42.278C48.233 42.252 48.254 42.228 48.273 42.203ZM42.71 52.688L39.913 49.891C40.763 49.346 41.592 48.759 42.396 48.131L45.215 50.95C44.404 51.573 43.569 52.154 42.71 52.688ZM35.3 52.348C36.267 51.933 37.217 51.466 38.146 50.952L40.91 53.716C39.962 54.218 38.992 54.664 38.007 55.055L35.3 52.348ZM46.765 49.672L43.94 46.847C44.438 46.406 44.929 45.955 45.402 45.481C45.639 45.244 45.865 45 46.094 44.758L48.911 47.575C48.682 47.819 48.47 48.072 48.231 48.31C47.757 48.783 47.265 49.233 46.765 49.672ZM53.396 15.915C54.676 17.877 55.582 20.036 56.162 22.298L54.452 20.588C54.432 20.43 54.405 20.274 54.382 20.118C54.344 19.858 54.307 19.598 54.261 19.34C54.177 18.87 54.08 18.404 53.97 17.942C53.92 17.735 53.863 17.532 53.808 17.326C53.713 16.97 53.61 16.616 53.499 16.265C53.461 16.149 53.435 16.03 53.396 15.915ZM10.754 10.832C16.277 5.30901 23.611 2.14101 30.874 2.14101C36.918 2.14101 42.454 4.34901 46.463 8.35801C47.024 8.91901 47.545 9.50601 48.029 10.115L48.289 10.459C48.309 10.485 48.328 10.512 48.348 10.538C48.789 11.123 49.195 11.726 49.568 12.346C49.576 12.36 49.584 12.374 49.592 12.388C49.958 13 50.291 13.629 50.591 14.271C50.605 14.3 50.617 14.331 50.63 14.36C50.914 14.974 51.167 15.601 51.391 16.238C51.41 16.294 51.43 16.349 51.449 16.405C51.644 16.975 51.808 17.555 51.956 18.14C51.99 18.276 52.029 18.41 52.061 18.547C52.19 19.098 52.29 19.656 52.378 20.217C52.408 20.411 52.441 20.604 52.466 20.8C52.536 21.334 52.584 21.872 52.617 22.413C52.631 22.634 52.643 22.856 52.651 23.079C52.67 23.614 52.671 24.152 52.655 24.691C52.648 24.912 52.637 25.132 52.625 25.353C52.594 25.906 52.549 26.461 52.482 27.016C52.459 27.21 52.428 27.404 52.401 27.598C52.317 28.186 52.22 28.773 52.095 29.359C52.066 29.497 52.029 29.634 51.998 29.771C51.863 30.361 51.712 30.949 51.536 31.535C51.51 31.623 51.486 31.712 51.459 31.8C51.258 32.448 51.029 33.091 50.779 33.73C50.742 33.826 50.708 33.922 50.669 34.017C50.411 34.657 50.126 35.29 49.819 35.917C49.771 36.015 49.725 36.113 49.676 36.21C49.362 36.835 49.022 37.452 48.66 38.062C48.605 38.155 48.549 38.247 48.493 38.339C48.12 38.95 47.725 39.552 47.304 40.143C47.246 40.224 47.186 40.304 47.127 40.385C46.691 40.984 46.234 41.573 45.749 42.147C45.701 42.204 45.65 42.259 45.601 42.316C45.089 42.913 44.555 43.498 43.989 44.064C43.644 44.409 43.292 44.745 42.933 45.072C37.552 49.968 30.685 52.751 23.88 52.751C23.665 52.751 23.455 52.733 23.241 52.727C22.779 52.715 22.318 52.701 21.863 52.664C21.573 52.64 21.289 52.6 21.003 52.566C20.602 52.518 20.202 52.467 19.807 52.399C19.536 52.353 19.268 52.298 19.001 52.242C18.587 52.155 18.178 52.058 17.772 51.949C17.535 51.886 17.299 51.823 17.065 51.752C16.613 51.615 16.17 51.459 15.731 51.294C15.551 51.227 15.368 51.167 15.191 51.095C14.584 50.849 13.989 50.58 13.411 50.281C13.307 50.227 13.209 50.162 13.106 50.107C12.646 49.859 12.194 49.598 11.754 49.317C11.51 49.16 11.275 48.989 11.037 48.822C10.06 48.138 9.12903 47.388 8.28003 46.539C-0.882971 37.378 0.227029 21.359 10.754 10.832ZM16.374 53.63C16.646 53.714 16.921 53.792 17.197 53.867C17.629 53.984 18.065 54.087 18.506 54.18C18.613 54.203 18.717 54.235 18.824 54.256L20.206 55.638C18.667 55.081 17.207 54.361 15.853 53.48C16.023 53.537 16.201 53.577 16.374 53.63ZM24.035 56.64L22.078 54.683C22.434 54.707 22.794 54.715 23.154 54.725C23.394 54.731 23.628 54.758 23.869 54.758C24.673 54.758 25.477 54.713 26.28 54.642L28.625 56.987C28.453 56.99 28.282 57 28.111 57C26.72 57 25.36 56.869 24.035 56.64Z" fill="#EA1C7F"/>
<path d="M12.4031 38.39L18.4171 36.922C18.4601 36.912 18.4941 36.867 18.5051 36.807L18.7141 35.672C16.5691 33.954 15.3471 31.568 15.0751 28.566C13.9861 27.775 13.4671 26.425 13.7661 25.037L14.0421 23.757C14.2781 22.664 15.0251 21.695 16.0381 21.135C16.4571 19.921 16.9961 18.799 17.6441 17.796C17.9261 17.359 18.1551 17.034 18.3421 16.771C18.9061 15.973 18.9061 15.973 18.8891 14.722C18.8821 14.219 18.8991 13.706 18.9381 13.197C18.9911 12.525 19.5691 12 20.2551 12C20.6621 12 21.0391 12.197 21.2631 12.528C21.3961 12.724 21.6801 13.042 22.2771 13.446C23.3811 14.192 25.0681 14.525 26.9821 14.398C27.2751 14.378 27.5771 14.368 27.8841 14.368C37.1681 14.377 39.6211 18.861 39.9671 22.851C41.3111 23.743 42.0451 25.13 41.9061 26.585L41.7461 28.259C41.5771 30.034 40.1471 31.471 38.1911 31.903C36.5571 35.226 33.9461 37.38 30.5871 38.18L30.4111 39.441C30.3951 39.553 30.4611 39.739 30.6431 39.879L38.5631 45.991C39.9801 45.012 41.3261 43.897 42.5731 42.65C47.2671 37.956 50.1201 31.964 50.6071 25.776C51.0981 19.53 49.1241 13.845 45.0481 9.77002C41.4171 6.14002 36.3831 4.14001 30.8741 4.14001C24.1381 4.14001 17.3201 7.09502 12.1691 12.246C7.47406 16.94 4.62106 22.932 4.13506 29.12C3.64406 35.366 4.84606 38.924 8.92306 43C9.39206 40.883 10.5121 38.944 12.4031 38.39Z" fill="#EA1C7F"/>
</svg>
